HIERARCHY
ROOT pelvis
{
	OFFSET 0.000000 0.000000 0.934274
	CHANNELS 6 Xposition Yposition Zposition Xrotation Yrotation Zrotation
	JOINT spine
	{
		OFFSET 0.000000 0.000000 0.000000
		CHANNELS 6 Xposition Yposition Zposition Xrotation Yrotation Zrotation
		JOINT spine.001
		{
			OFFSET 0.000000 -0.015979 0.304890
			CHANNELS 3 Xrotation Yrotation Zrotation
			JOINT neck
			{
				OFFSET 0.000000 0.037208 0.303033
				CHANNELS 6 Xposition Yposition Zposition Xrotation Yrotation Zrotation
				JOINT face
				{
					OFFSET 0.000000 0.004150 0.237748
					CHANNELS 6 Xposition Yposition Zposition Xrotation Yrotation Zrotation
					End Site
					{
						OFFSET -0.000000 -0.034878 -0.009349
					}
				}
			}
			JOINT shoulder.L
			{
				OFFSET 0.000000 0.037208 0.303033
				CHANNELS 6 Xposition Yposition Zposition Yrotation Xrotation Zrotation
				JOINT upper_arm.L
				{
					OFFSET 0.189422 0.000000 0.000000
					CHANNELS 6 Xposition Yposition Zposition Xrotation Yrotation Zrotation
					JOINT forearm.L
					{
						OFFSET 0.318334 0.000139 0.001154
						CHANNELS 6 Xposition Yposition Zposition Xrotation Yrotation Zrotation
						End Site
						{
							OFFSET 0.266901 -0.004531 -0.001588
						}
					}
				}
			}
			JOINT shoulder.R
			{
				OFFSET 0.000000 0.037208 0.303033
				CHANNELS 6 Xposition Yposition Zposition Yrotation Xrotation Zrotation
				JOINT upper_arm.R
				{
					OFFSET -0.189422 0.000000 0.000000
					CHANNELS 6 Xposition Yposition Zposition Xrotation Yrotation Zrotation
					JOINT forearm.R
					{
						OFFSET -0.315265 0.000139 0.001154
						CHANNELS 6 Xposition Yposition Zposition Xrotation Yrotation Zrotation
						End Site
						{
							OFFSET -0.276710 -0.004702 -0.001589
						}
					}
				}
			}
		}
	}
	JOINT pelvis.L
	{
		OFFSET 0.000000 0.000000 0.000000
		CHANNELS 6 Xposition Yposition Zposition Yrotation Xrotation Zrotation
		End Site
		{
			OFFSET 0.116659 0.000000 0.000000
		}
	}
	JOINT pelvis.R
	{
		OFFSET 0.000000 0.000000 0.000000
		CHANNELS 6 Xposition Yposition Zposition Yrotation Xrotation Zrotation
		End Site
		{
			OFFSET -0.116659 0.000000 0.000000
		}
	}
	JOINT thigh.L
	{
		OFFSET 0.116659 0.000000 0.000000
		CHANNELS 6 Xposition Yposition Zposition Xrotation Yrotation Zrotation
		JOINT shin.L
		{
			OFFSET 0.022570 0.000000 -0.430662
			CHANNELS 6 Xposition Yposition Zposition Xrotation Yrotation Zrotation
			JOINT foot.L
			{
				OFFSET 0.021945 0.000000 -0.418739
				CHANNELS 3 Xrotation Yrotation Zrotation
				End Site
				{
					OFFSET 0.018699 -0.190659 -0.080061
				}
			}
			JOINT heel.02.L
			{
				OFFSET 0.021945 0.000000 -0.418739
				CHANNELS 3 Xrotation Yrotation Zrotation
				End Site
				{
					OFFSET 0.101086 0.041510 -0.078525
				}
			}
		}
	}
	JOINT thigh.R
	{
		OFFSET -0.116659 0.000000 0.000000
		CHANNELS 6 Xposition Yposition Zposition Xrotation Yrotation Zrotation
		JOINT shin.R
		{
			OFFSET -0.022174 0.000000 -0.423103
			CHANNELS 6 Xposition Yposition Zposition Xrotation Yrotation Zrotation
			JOINT foot.R
			{
				OFFSET -0.022423 0.000000 -0.427864
				CHANNELS 3 Xrotation Yrotation Zrotation
				End Site
				{
					OFFSET -0.019527 -0.199099 -0.083605
				}
			}
			JOINT heel.02.R
			{
				OFFSET -0.022423 0.000000 -0.427864
				CHANNELS 3 Xrotation Yrotation Zrotation
				End Site
				{
					OFFSET -0.099330 0.041510 -0.077046
				}
			}
		}
	}
}
MOTION
Frames: 7
Frame Time: 0.041667
0.027034 -0.102273 0.912173 -0.000000 0.000000 -1.235986 0.000000 0.000000 0.000000 -9.712323 0.100597 0.013881 9.985400 0.453655 3.697350 0.000000 0.037208 0.303033 14.663817 2.911330 3.275952 -0.000000 0.004150 0.237748 2.253631 0.000000 -0.000000 0.000000 0.037208 0.303033 1.349461 0.001951 -0.165645 0.189422 -0.000000 -0.000000 7.936208 80.278383 -9.443735 0.318334 0.000139 0.001154 2.790279 14.174867 -21.193816 0.000000 0.037208 0.303033 1.403765 0.002112 -0.172321 -0.189422 -0.000000 -0.000000 30.482567 -80.472476 35.707498 -0.315265 0.000139 0.001154 1.214171 -10.891662 11.412222 0.000000 -0.000000 -0.000000 0.854365 -0.000000 0.000029 0.000000 -0.000000 -0.000000 0.854395 -0.000000 0.000000 0.116646 -0.000000 -0.001740 8.256071 3.809533 0.158663 0.022570 -0.000000 -0.430662 5.854442 -3.643954 0.492656 -11.591275 -4.014972 5.149752 -18.967099 49.493699 36.711696 -0.116647 -0.000000 0.001739 7.110072 -0.576581 -0.337368 -0.022174 0.000000 -0.423103 6.604285 4.155891 -0.585270 -10.683935 4.751784 -6.788140 -18.779470 -49.120552 -37.301606 
0.027508 -0.101541 0.913088 -0.000000 0.000000 -0.904402 -0.000000 0.000000 -0.000000 -9.742765 0.023747 0.003283 9.981705 0.506568 4.129354 0.000000 0.037208 0.303033 14.647894 2.881838 2.215581 -0.000000 0.004150 0.237748 2.662807 0.000000 -0.000001 0.000000 0.037208 0.303033 1.360307 0.001983 -0.167025 0.189422 -0.000000 -0.000000 12.675078 80.280575 -15.037524 0.318334 0.000139 0.001154 2.682937 14.195411 -20.289053 0.000000 0.037208 0.303033 1.414574 0.002143 -0.173685 -0.189422 -0.000000 0.000000 28.012180 -80.879152 32.641833 -0.315265 0.000139 0.001154 1.268295 -10.929258 11.956634 0.000000 0.000000 -0.000000 0.755556 -0.000000 0.000036 0.000000 0.000000 -0.000000 0.755585 -0.000000 0.000000 0.116649 -0.000000 -0.001538 8.092208 3.902878 0.148887 0.022570 0.000000 -0.430662 6.009448 -3.818308 0.514827 -12.090573 -3.951906 4.886318 -19.281061 49.696777 36.904410 -0.116649 -0.000000 0.001538 7.278782 -0.517208 -0.349163 -0.022174 0.000000 -0.423103 6.306686 4.019151 -0.551350 -10.490315 4.704278 -6.766235 -19.360999 -49.336260 -37.045218 
0.027885 -0.100996 0.913780 -0.000000 0.000000 -0.647773 0.000000 -0.000000 0.000000 -9.756900 -0.025516 -0.003531 9.979888 0.531599 4.333794 -0.000000 0.037208 0.303033 14.646962 2.900094 1.672507 0.000000 0.004150 0.237748 2.994788 0.000000 -0.000000 0.000000 0.037208 0.303033 1.401291 0.002105 -0.172076 0.189422 -0.000000 -0.000000 16.326403 80.161730 -19.373886 0.318334 0.000139 0.001154 2.574662 14.192395 -19.413370 -0.000000 0.037208 0.303033 1.455630 0.002270 -0.178713 -0.189422 0.000000 -0.000000 25.567056 -81.111659 29.716777 -0.315265 0.000139 0.001154 1.343791 -11.163641 12.455555 0.000000 -0.000000 0.000000 0.702858 -0.000000 -0.000040 0.000000 -0.000000 0.000000 0.702829 -0.000000 0.000000 0.116651 -0.000000 -0.001431 8.002631 3.962792 0.143034 0.022570 -0.000000 -0.430662 6.059442 -3.950886 0.526100 -12.427114 -3.888547 4.674120 -19.555178 49.873724 37.079126 -0.116651 0.000000 0.001431 7.415647 -0.457375 -0.359615 -0.022174 -0.000000 -0.423103 6.057354 3.879591 -0.522165 -10.295729 4.701985 -6.828321 -19.780959 -49.491814 -36.857541 
0.028206 -0.100619 0.914301 -0.000000 0.000000 -0.457925 -0.000000 0.000000 0.000000 -9.758487 -0.047778 -0.006612 9.980101 0.528052 4.304887 0.000000 0.037208 0.303033 14.686674 2.955691 1.680556 -0.000000 0.004150 0.237748 3.222921 0.000000 0.000001 0.000000 0.037208 0.303033 1.444368 0.002236 -0.177386 0.189422 -0.000000 0.000000 18.854848 79.942733 -22.430222 0.318334 0.000139 0.001154 2.475087 14.222253 -18.556529 -0.000000 0.037208 0.303033 1.498671 0.002407 -0.184028 -0.189422 0.000000 -0.000000 23.508039 -81.114568 27.350830 -0.315265 0.000139 0.001154 1.431268 -11.581137 12.806630 0.000000 0.000000 0.000000 0.692026 -0.000000 -0.000055 0.000000 0.000000 0.000000 0.691997 -0.000000 0.000000 0.116651 -0.000000 -0.001409 7.975039 3.995200 0.140276 0.022570 0.000000 -0.430662 6.014458 -4.046805 0.527200 -12.558654 -3.818069 4.510479 -19.746251 50.000366 37.218937 -0.116651 -0.000000 0.001409 7.520977 -0.415902 -0.367457 -0.022174 0.000000 -0.423103 5.860290 3.767145 -0.499421 -10.143912 4.740530 -6.952164 -20.055430 -49.610792 -36.804259 
0.028572 -0.100281 0.914827 -0.000000 0.000000 -0.286962 -0.000000 -0.000000 -0.000000 -9.765488 -0.064153 -0.008882 9.981390 0.512008 4.173823 -0.000000 0.037208 0.303033 14.781031 3.021605 1.959244 -0.000000 0.004150 0.237748 3.358013 -0.000000 -0.000001 -0.000000 0.037208 0.303033 1.446391 0.002243 -0.177584 0.189422 -0.000000 -0.000000 20.774111 79.685993 -24.797026 0.318334 0.000139 0.001154 2.398910 14.350869 -17.749876 -0.000000 0.037208 0.303033 1.500658 0.002415 -0.184285 -0.189422 0.000000 0.000000 22.145104 -80.968314 25.846180 -0.315265 0.000139 0.001154 1.497812 -11.988036 12.937838 -0.000000 -0.000000 -0.000000 0.684122 -0.000000 -0.000029 -0.000000 -0.000000 -0.000000 0.684121 -0.000000 0.000000 0.116651 -0.000000 -0.001393 7.951176 4.030901 0.137368 0.022570 0.000000 -0.430662 5.956266 -4.135419 0.526676 -12.546827 -3.735867 4.367433 -19.850565 50.074907 37.318969 -0.116651 -0.000000 0.001393 7.613033 -0.412866 -0.372169 -0.022174 0.000000 -0.423103 5.693107 3.717836 -0.482710 -10.091996 4.779188 -7.042162 -20.281019 -49.735720 -36.872366 
0.029012 -0.099934 0.915357 -0.000000 0.000000 -0.132569 0.000000 0.000000 -0.000000 -9.788460 -0.091046 -0.012624 9.982608 0.495037 4.035172 0.000000 0.037208 0.303033 14.913998 3.099953 2.295639 -0.000000 0.004150 0.237748 3.423149 0.000000 -0.000002 0.000000 0.037208 0.303033 1.414789 0.002145 -0.173712 0.189422 -0.000000 -0.000000 22.229269 79.461062 -26.614158 0.318334 0.000139 0.001154 2.350909 14.550331 -17.085720 0.000000 0.037208 0.303033 1.469092 0.002313 -0.180388 -0.189422 -0.000000 -0.000000 21.545762 -80.802955 25.224666 -0.315265 0.000139 0.001154 1.524856 -12.234058 12.884634 0.000000 -0.000000 0.000000 0.655694 0.000000 0.000033 0.000000 -0.000000 0.000000 0.655724 -0.000000 0.000000 0.116652 -0.000000 -0.001335 7.913642 4.085856 0.132908 0.022570 -0.000000 -0.430662 5.925185 -4.224136 0.528490 -12.467897 -3.655833 4.247057 -19.909783 50.116810 37.374737 -0.116652 -0.000000 0.001335 7.694280 -0.438324 -0.374445 -0.022174 -0.000000 -0.423103 5.550893 3.722861 -0.470877 -10.125334 4.790967 -7.052535 -20.488232 -49.862864 -36.989228 
0.029475 -0.099596 0.915721 -0.000000 0.000000 -0.034205 0.000000 0.000000 0.000000 -9.823015 -0.128595 -0.017870 9.983596 0.479361 3.907210 0.000000 0.037208 0.303033 15.056124 3.206290 2.634982 0.000000 0.004150 0.237748 3.456163 0.000001 -0.000001 0.000000 0.037208 0.303033 1.391990 0.002075 -0.170918 0.189422 -0.000000 -0.000000 23.090559 79.307587 -27.703423 0.318334 0.000139 0.001154 2.319514 14.720429 -16.608705 0.000000 0.037208 0.303033 1.446257 0.002242 -0.177618 -0.189422 0.000000 -0.000000 21.517266 -80.696438 25.237288 -0.315265 0.000139 0.001154 1.521916 -12.338376 12.724354 0.000000 -0.000000 0.000000 0.617636 -0.000000 -0.000007 0.000000 -0.000000 0.000000 0.617636 -0.000000 0.000000 0.116653 -0.000000 -0.001257 7.887258 4.154773 0.127702 0.022570 -0.000000 -0.430662 5.900472 -4.302711 0.530309 -12.369136 -3.601217 4.177257 -19.969238 50.149684 37.393595 -0.116653 -0.000000 0.001258 7.747820 -0.460701 -0.375547 -0.022174 -0.000000 -0.423103 5.448979 3.737890 -0.462930 -10.141054 4.784430 -7.034904 -20.651239 -49.968991 -37.109569 
